<?xml version="1.0" encoding="UTF-8"?>
<svg id="Layer_1" data-name="Layer 1" xmlns="http://www.w3.org/2000/svg" viewBox="0 0 500 500">
  <defs>
    <style>
      .cls-1 {
        fill: #a9123d;
      }

      .cls-1, .cls-2, .cls-3, .cls-4, .cls-5, .cls-6 {
        stroke-width: 0px;
      }

      .cls-1, .cls-2, .cls-3, .cls-4, .cls-6 {
        fill-rule: evenodd;
      }

      .cls-2 {
        fill: #d7214a;
      }

      .cls-3 {
        fill: #b81f58;
      }

      .cls-4 {
        fill: #dc3261;
      }

      .cls-5 {
        fill: #30004a;
      }

      .cls-6 {
        fill: #780224;
      }

      .cls-7 {
        fill: #fff;
        font-family: Godfather, 'The Godfather';
        font-size: 158.51px;
      }
    </style>
  </defs>
  <g>
    <path class="cls-5" d="M130.14,39.71v308.26s136.13,0,136.13,0l-3.44-6.03c-.11-.19-.21-.39-.31-.6-2.1-4.68-3.25-9.74-3.38-14.86-.03-1.04.19-2.06.64-3h0s-8.18-5.5-10-8.16c-3.3-4.84-7.16-22.33-7.16-22.33,0,0-12.07.49-15.2-.21-2.78-.62-6.7-3.63-7.12-6.46-.44-2.92,1.67-8.5,1.67-8.5l-26.63,4.28c-.91.15-1.83.27-2.75.36-22.87,2.16-52.35-2.09-37.28-28.46,6.96-12.19,25.2-33.93,35.32-43.66,38.65-37.1,78.48-60.49,78.48-60.49,0,0-25.35,10.91-33.95,15.95-8.15,4.78-33.03,23.37-33.03,23.37l-3.25-74.34c-.17-3.86,0-7.74.53-11.57l.62-4.6c.28-2.03,1.23-3.91,2.71-5.33l2.05-1.97c11.97-13.83,89.23-65.03,151.63-36.99,3.93,1.77,13.33,10.91,13.33,10.91,0,0,.25-18.66,0-24.58-.02-.47-1.12-.97-1.58-1-56.88-3.05-235.9-.5-238.02,0Z"/>
    <polygon class="cls-5" points="278.11 204.29 249.53 234.79 250.28 224.91 256.84 219.13 278.11 204.29"/>
    <path class="cls-5" d="M369.31,278.43v26.67c0,.85-.34,1.65-.95,2.24h0c-.9.87-1.92,1.6-3.04,2.17-8.96,4.53-50.38,26.81-61.98,37.2-.43.38-1.56.75-2.52.97-.82.19-1.65.28-2.49.28h-10.91c30.24-35.49,81.88-69.54,81.88-69.54Z"/>
  </g>
  <text class="cls-7" text-anchor="middle" transform="translate(250 434.03)"><tspan x="0" y="0">Capone</tspan></text>
  <path class="cls-5" d="M80.14,321.56c7.36-.64,14.19-4.74,21.16-6.46,3.93-.96,13.9-1.37,19.24,10.79.23.52.67.66.58.03-.08-.54-.2-1.06-.33-1.58.04-.06.06-.12.05-.21-.96-7.59-5.38-13.21-12.51-16.27-.04-.02-.08-.04-.12-.05-7.55-3.19-15.27-1.12-22.72-4.49-7.81-3.54-2.94-12.69-5.07-18.51-1.12-3.08-3.26-5.58-6.32-6.83-2.44-1-4.43-.46-6.33.57-.89-3.26-2.97-6.57-5.6-8.65-3.6-2.85-8.65-2.56-12.19-.72-2.38,1.24-4.64,3.72-6.05,6.62-2.16,4.47-2.31,9.95,2.23,13.52.16.12.3.13.42.08.26.03-.1-.07-.1-.42,0-.68.14-1.38.42-2.04.37-.88.98-1.67,1.79-2.23,1.05-.73,2.45-1.07,4.1-.67,1.58.38,4.21,1.83,4.71,4.77.3,1.78.01,3.6.04,5.24.03,2.18.36,5.18,2.34,6.76,1.36,1.09,2.78,1.6,4.29,2.02-1.9,3.56-.78,9.53,1.4,12.99,3.31,5.23,9.31,6.21,14.57,5.75ZM76.44,299.12c-.07.09-.22-.04-.17-.14,1.33-2.85.78-6.5-.98-9.39-1.95-3.21-5.34-4.06-8.38-3.11-.65.66-2.1.54-2.55-.73-.58-1.63-.82-3.29-1.23-4.94-.55-2.2-2.29-4-4.09-5.3-3.86-2.79-7.84-2.22-10.53,1.01-.07.09-.2-.05-.14-.14,2.55-3.39,5.53-4.74,10.03-3.58,2.19.56,4.51,2.54,5.86,4.39,1.46,1.99,1.79,4.17,2.38,6.37,7.74-1.02,14.47,9.42,9.81,15.56ZM72.05,310.43c-.79-.89-1.47-1.88-2.01-2.99-1.97-4.06-1.22-8.45.75-11.83.04-.07.17-.02.14.06-1.3,4.23-.81,8.78,2.51,12.46,3.03,3.36,7.29,4.46,11.33,4.46.26,0,.53,0,.8-.02,1.26-.06,2.49-.27,3.69-.59l9.2-2.48.61-.16c-4.58,1.63-10.8,4.19-15.61,5.14-4.02.79-8.44-.71-11.42-4.05Z"/>
  <path class="cls-3" d="M128.89,335.03c-.34-1.06-.26-2.21.38-3.11.01-.01.02-.03.03-.04l6.51-9.32c.72-.99,1.66-1.3,2.14-1.2l1.15.3-10.21,13.38"/>
  <path class="cls-1" d="M133.96,328.39l-1.46-1.09,3.32-4.75c.72-.99,1.58-1.3,2.14-1.2l1.15.3-5.15,6.74h0Z"/>
  <path class="cls-4" d="M130.22,332.28c-.09-.06-.05-.26.09-.44.13-.18.31-.28.39-.22s.05.26-.09.44-.31.28-.39.22h0Z"/>
  <path class="cls-6" d="M129.9,331.46c-.11-.08-.06-.35.12-.6.18-.25.41-.38.53-.3s.06.35-.12.6-.41.38-.53.3h0Z"/>
  <path class="cls-4" d="M131.55,330.96c-.11-.08-.06-.35.12-.6s.41-.38.53-.3.06.35-.12.6c-.18.25-.41.38-.53.3h0Z"/>
  <path class="cls-6" d="M131.87,328.9c-.09-.06-.05-.27.09-.45s.32-.29.4-.23.05.27-.09.45c-.14.19-.32.29-.4.23h0Z"/>
  <path class="cls-2" d="M132.97,327.4c-.09-.06-.05-.27.09-.45.14-.19.32-.29.4-.23s.05.27-.09.45c-.14.19-.32.29-.4.23h0Z"/>
  <path class="cls-4" d="M134.17,325.96c-.09-.06-.05-.27.09-.46.14-.19.32-.29.4-.23s.05.27-.09.46-.32.29-.4.23h0Z"/>
  <path class="cls-2" d="M135.76,324.51c-.09-.06-.05-.27.09-.46.14-.19.32-.29.4-.23s.05.27-.09.46-.32.29-.4.23h0Z"/>
  <path class="cls-4" d="M136.68,322.82c-.09-.06-.05-.27.09-.46.14-.19.32-.29.4-.23s.05.27-.09.46c-.14.19-.32.29-.4.23h0Z"/>
  <path class="cls-2" d="M128.69,333.83c.36-.46.43-.76.65-.6.23.17.13.71-.23,1.21h0c-.05.07-.21.36-.27.43,0,0-.09-.4-.11-.54-.01-.11-.04-.49-.04-.49Z"/>
  <path class="cls-6" d="M135.55,325.82c-.21.28-.28.59-.15.69l.8-1.04c-.13-.1-.44.06-.65.35h0Z"/>
  <path class="cls-4" d="M137.96,321.84c.19.1.4-.16.53-.35l-.45-.11c-.14.19-.18.39-.09.46h0Z"/>
  <path class="cls-2" d="M138.29,322.49c-.09-.06-.27.04-.4.23s-.18.39-.09.46c.03.02.07.02.12,0l.42-.58c0-.05-.02-.09-.05-.11h0Z"/>
  <path class="cls-4" d="M133.93,328.39l-.32-.23c-.14.19-.18.39-.09.45s.27-.04.4-.23h0Z"/>
  <path class="cls-2" d="M133.62,328.16l.32.23c.14-.19.18-.39.09-.45s-.27.04-.4.23h0Z"/>
</svg>